<svg version="1.1" xmlns="http://www.w3.org/2000/svg"
     xmlns:xlink="http://www.w3.org/1999/xlink">
    <defs>
        <symbol id="email"  viewBox="0 0 24 24">
            <path d="M0 3v18h24v-18h-24zm6.623 7.929l-4.623 5.712v-9.458l4.623 3.746zm-4.141-5.929h19.035l-9.517 7.713-9.518-7.713zm5.694 7.188l3.824 3.099 3.83-3.104 5.612 6.817h-18.779l5.513-6.812zm9.208-1.264l4.616-3.741v9.348l-4.616-5.607z"/>
        </symbol>
        <symbol id="passport"  viewBox="0 0 24 24">
            <path d="M23 8c0-.552-.447-1-1-1h-12c-.552 0-1 .448-1 1v15c0 .553.448 1 1 1h12c.553 0 1-.447 1-1v-15zm-12 14h10v-13h-10v13zm2-2h6v-1h-6v1zm3.751-15h-2.207l-1.245-2.671-9.97 4.649 3.671 7.873v4.731l-5.906-12.665c-.064-.137-.094-.28-.094-.422 0-.376.214-.737.578-.907l11.781-5.494c.137-.064.281-.094.422-.094.377 0 .738.214.907.578l2.063 4.422zm-.751 5.086c2.208 0 4 1.792 4 4s-1.792 4-4 4-4-1.792-4-4 1.792-4 4-4m-1.587 5.331l.005.025c.121.53.27.968.542 1.488-.759-.28-1.327-.767-1.723-1.513h1.176zm2.255 0c-.147.575-.353 1.02-.668 1.504-.329-.5-.525-.951-.668-1.504h1.336zm2.094 0c-.391.736-1.001 1.241-1.717 1.502.26-.496.439-1.012.542-1.502h1.175zm.299-1.938h-1.361c.031.32.034.726.013 1.042h1.348c.056-.346.055-.696 0-1.042m-2.261 0h-1.601c-.037.364-.038.757-.013 1.042h1.628c.027-.342.02-.703-.014-1.042m-2.5 0h-1.361c-.056.346-.056.696 0 1.042h1.348c-.023-.368-.017-.667.01-1.016l.003-.026zm4.462-.896c-.398-.745-.999-1.245-1.748-1.513.247.485.413.97.539 1.492l.005.021h1.204zm-2.127 0c-.155-.565-.346-1.01-.635-1.497-.271.428-.507 1.011-.636 1.497h1.271zm-3.398 0h1.205c.117-.521.32-1.065.548-1.523-.772.273-1.353.772-1.753 1.523"/>
        </symbol>
        <symbol id="birthday"  viewBox="0 0 24 24">
            <path d="M4 9v-1.974h2v1.974h5v-4h2v4h5v-2h2v2h.755c1.803.091 3.243 1.646 3.243 3.519 0 .961-.382 1.829-.998 2.458v9.023h-22v-9.02c-.43-.438-.747-.993-.9-1.621-.067-.276-.1-.558-.1-.841 0-2.009 1.629-3.479 3.242-3.518h.758zm17 11h-18v2h18v-2zm-18-4.027v2.027h18v-2.027l-.407.025c-.775 0-1.541-.27-2.154-.79-.576.488-1.333.789-2.155.789-.812 0-1.566-.295-2.142-.779-.581.487-1.341.78-2.136.78-.807 0-1.575-.292-2.149-.78-.586.491-1.346.78-2.137.78-.775 0-1.526-.26-2.16-.79-.561.479-1.328.79-2.154.79l-.406-.025zm.29-4.973c-.627.049-1.243.635-1.288 1.421-.051.887.632 1.585 1.454 1.576 1.176-.014 1.915-.86 2.117-1.997.217.88.986 1.975 2.145 1.996 1.156.021 1.99-.959 2.161-1.958l.008-.038c.199 1.04.99 1.996 2.109 1.996 1.155 0 1.917-.872 2.172-1.996.248 1.138 1.035 1.994 2.117 1.997 1.108.003 1.955-.928 2.203-1.997.188.828.804 1.985 2.051 1.998.759.008 1.46-.65 1.46-1.483 0-.837-.649-1.481-1.318-1.517l-17.391.002zm.863-4.451c-1.897-.621-1.351-3.444.89-4.523.08 1.422 1.957 1.566 1.957 3.002 0 .602-.441 1.274-1.084 1.521.154-.509-.186-1.416-.88-1.809-.702.407-1.063 1.302-.883 1.809zm13.999-.026c-1.896-.621-1.35-3.444.891-4.523.08 1.422 1.957 1.566 1.957 3.002 0 .602-.441 1.274-1.084 1.521.153-.509-.186-1.416-.88-1.809-.702.407-1.063 1.302-.884 1.809zm-6.999-2c-1.897-.621-1.351-3.444.89-4.523.08 1.422 1.957 1.566 1.957 3.002 0 .602-.441 1.274-1.084 1.521.153-.509-.186-1.416-.88-1.809-.702.407-1.063 1.302-.883 1.809z"/>
        </symbol>
        <symbol id="workplace"  viewBox="0 0 24 24">
            <path d="M22 2v20h-20v-20h20zm2-2h-24v24h24v-24zm-4 7h-8v1h8v-1zm0 5h-8v1h8v-1zm0 5h-8v1h8v-1zm-10.516-11.304l-.71-.696-2.553 2.607-1.539-1.452-.698.71 2.25 2.135 3.25-3.304zm0 5l-.71-.696-2.552 2.607-1.539-1.452-.698.709 2.249 2.136 3.25-3.304zm0 5l-.71-.696-2.552 2.607-1.539-1.452-.698.709 2.249 2.136 3.25-3.304z"/>
        </symbol>
        <symbol id="date"  viewBox="0 0 24 24">
            <path d="M17 1c0-.552-.447-1-1-1s-1 .448-1 1v2c0 .552.447 1 1 1s1-.448 1-1v-2zm-12 2c0 .552-.447 1-1 1s-1-.448-1-1v-2c0-.552.447-1 1-1s1 .448 1 1v2zm13 5v10h-16v-10h16zm2-6h-2v1c0 1.103-.897 2-2 2s-2-.897-2-2v-1h-8v1c0 1.103-.897 2-2 2s-2-.897-2-2v-1h-2v18h20v-18zm4 3v19h-22v-2h20v-17h2zm-17 7h-2v-2h2v2zm4 0h-2v-2h2v2zm4 0h-2v-2h2v2zm-8 4h-2v-2h2v2zm4 0h-2v-2h2v2zm4 0h-2v-2h2v2z"/>
        </symbol>
        <symbol id="country"  viewBox="0 0 24 24">
            <path d="M13.144 8.171c-.035-.066.342-.102.409-.102.074.009-.196.452-.409.102zm-2.152-3.072l.108-.031c.064.055-.072.095-.051.136.086.155.021.248.008.332-.014.085-.104.048-.149.093-.053.066.258.075.262.085.011.033-.375.089-.304.171.096.136.824-.195.708-.176.225-.113.029-.125-.097-.19-.043-.215-.079-.547-.213-.68l.088-.102c-.206-.299-.36.362-.36.362zm13.008 6.901c0 6.627-5.373 12-12 12-6.628 0-12-5.373-12-12s5.372-12 12-12c6.627 0 12 5.373 12 12zm-8.31-5.371c-.006-.146-.19-.284-.382-.031-.135.174-.111.439-.184.557-.104.175.567.339.567.174.025-.277.732-.063.87-.025.248.069.643-.226.211-.381-.355-.13-.542-.269-.574-.523 0 0 .188-.176.106-.166-.218.027-.614.786-.614.395zm6.296 5.371c0-1.035-.177-2.08-.357-2.632-.058-.174-.189-.312-.359-.378-.256-.1-1.337.597-1.5.254-.107-.229-.324.146-.572.008-.12-.066-.454-.515-.605-.46-.309.111.474.964.688 1.076.201-.152.852-.465.992-.038.268.804-.737 1.685-1.251 2.149-.768.694-.624-.449-1.147-.852-.275-.211-.272-.66-.55-.815-.124-.07-.693-.725-.688-.813l-.017.166c-.094.071-.294-.268-.315-.321 0 .295.48.765.639 1.001.271.405.416.995.748 1.326.178.178.858.914 1.035.898.193-.017.803-.458.911-.433.644.152-1.516 3.205-1.721 3.583-.169.317.138 1.101.113 1.476-.029.433-.37.573-.693.809-.346.253-.265.745-.556.925-.517.318-.889 1.353-1.623 1.348-.216-.001-1.14.36-1.261.007-.094-.256-.22-.45-.353-.703-.13-.248-.015-.505-.173-.724-.109-.152-.475-.497-.508-.677-.002-.155.117-.626.28-.708.229-.117.044-.458.016-.656-.048-.354-.267-.646-.53-.851-.389-.299-.188-.537-.097-.964 0-.204-.124-.472-.398-.392-.564.164-.393-.44-.804-.413-.296.021-.538.209-.813.292-.346.104-.7-.082-1.042-.125-1.407-.178-1.866-1.786-1.499-2.946.037-.19-.114-.542-.048-.689.158-.352.48-.747.762-1.014.158-.15.361-.112.547-.229.287-.181.291-.553.572-.781.4-.325.946-.318 1.468-.388.278-.037 1.336-.266 1.503-.06 0 .038.191.604-.019.572.433.023 1.05.749 1.461.579.211-.088.134-.736.567-.423.262.188 1.436.272 1.68.069.15-.124.234-.93.052-1.021.116.115-.611.124-.679.098-.12-.044-.232.114-.425.025.116.055-.646-.354-.218-.667-.179.131-.346-.037-.539.107-.133.108.062.18-.128.274-.302.153-.53-.525-.644-.602-.116-.076-1.014-.706-.77-.295l.789.785c-.039.025-.207-.286-.207-.059.053-.135.02.579-.104.347-.055-.089.09-.139.006-.268 0-.085-.228-.168-.272-.226-.125-.155-.457-.497-.637-.579-.05-.023-.764.087-.824.11-.07.098-.13.201-.179.311-.148.055-.287.126-.419.214l-.157.353c-.068.061-.765.291-.769.3.029-.075-.487-.171-.453-.321.038-.165.213-.68.168-.868-.048-.197 1.074.284 1.146-.235.029-.225.046-.487-.313-.525.068.008.695-.246.799-.36.146-.168.481-.442.724-.442.284 0 .223-.413.354-.615.131.053-.07.376.087.507-.01-.103.445.057.489.033.104-.054.684-.022.594-.294-.1-.277.051-.195.181-.253-.022.009.34-.619.402-.413-.043-.212-.421.074-.553.063-.305-.024-.176-.52-.061-.665.089-.115-.243-.256-.247-.036-.006.329-.312.627-.241 1.064.108.659-.735-.159-.809-.114-.28.17-.509-.214-.364-.444.148-.235.505-.224.652-.476.104-.178.225-.385.385-.52.535-.449.683-.09 1.216-.041.521.048.176.124.104.324-.069.19.286.258.409.099.07-.092.229-.323.298-.494.089-.222.901-.197.334-.536-.374-.223-2.004-.672-3.096-.672-.236 0-.401.263-.581.412-.356.295-1.268.874-1.775.698-.519-.179-1.63.66-1.808.666-.065.004.004-.634.358-.681-.153.023 1.247-.707 1.209-.859-.046-.18-2.799.822-2.676 1.023.059.092.299.092-.016.294-.18.109-.372.801-.541.801-.505.221-.537-.435-1.099.409l-.894.36c-1.328 1.411-2.247 3.198-2.58 5.183-.013.079.334.226.379.28.112.134.112.712.167.901.138.478.479.744.74 1.179.154.259.41.914.329 1.186.108-.178 1.07.815 1.246 1.022.414.487.733 1.077.061 1.559-.217.156.33 1.129.048 1.368l-.361.093c-.356.219-.195.756.021.982 1.818 1.901 4.38 3.087 7.22 3.087 5.517 0 9.989-4.472 9.989-9.989zm-11.507-6.357c.125-.055.293-.053.311-.22.015-.148.044-.046.08-.1.035-.053-.067-.138-.11-.146-.064-.014-.108.069-.149.104l-.072.019-.068.087.008.048-.087.106c-.085.084.002.139.087.102z"/>
        </symbol>
        <symbol id="city"  viewBox="0 0 24 24">
            <path d="M6 7v-7h13v10h5v14h-23v-17h5zm0 16v-4h-1v4h1zm8-4h-3v4h3v-4zm6 0h-1v4h1v-4zm2-7h-3v6h2v4h1v-10zm-5-10h-9v20h1v-5h7v5h1v-20zm-13 20v-4h2v-9h-3v13h1zm17-6h-1v-2h1v2zm-17-2h1v2h-1v-2zm8 1h-2v-2h2v2zm3 0h-2v-2h2v2zm-10-4v2h-1v-2h1zm7 1h-2v-2h2v2zm3 0h-2v-2h2v2zm-3-3h-2v-2h2v2zm3 0h-2v-2h2v2zm-3-3h-2v-2h2v2zm3 0h-2v-2h2v2z"/>
        </symbol>
        <symbol id="company"  viewBox="0 0 24 24">
            <path d="M15.812 4.819c-.33-.341-.312-.877.028-1.207l3.469-3.365c.17-.164.387-.247.603-.247.219 0 .438.085.604.257l-4.704 4.562zm-5.705 8.572c-.07.069-.107.162-.107.255 0 .194.158.354.354.354.089 0 .178-.033.247-.1l.583-.567-.493-.509-.584.567zm4.924-6.552l-1.994 1.933c-1.072 1.039-1.619 2.046-2.124 3.451l.881.909c1.419-.461 2.442-.976 3.514-2.016l1.994-1.934-2.271-2.343zm5.816-5.958l-5.137 4.982 2.586 2.671 5.138-4.98c.377-.366.566-.851.566-1.337 0-1.624-1.968-2.486-3.153-1.336zm-11.847 12.119h-4v1h4v-1zm9-1.35v1.893c0 4.107-6 2.457-6 2.457s1.518 6-2.638 6h-7.362v-20h12.629l2.062-2h-16.691v24h10.189c3.163 0 9.811-7.223 9.811-9.614v-4.687l-2 1.951z"/>
        </symbol>
        <symbol id="pencil"  viewBox="0 0 24 24">
            <path d="M18.363 8.464l1.433 1.431-12.67 12.669-7.125 1.436 1.439-7.127 12.665-12.668 1.431 1.431-12.255 12.224-.726 3.584 3.584-.723 12.224-12.257zm-.056-8.464l-2.815 2.817 5.691 5.692 2.817-2.821-5.693-5.688zm-12.318 18.718l11.313-11.316-.705-.707-11.313 11.314.705.709z"/>
        </symbol>
        <symbol id="trash"  viewBox="0 0 24 24">
            <path d="M9 19c0 .552-.448 1-1 1s-1-.448-1-1v-10c0-.552.448-1 1-1s1 .448 1 1v10zm4 0c0 .552-.448 1-1 1s-1-.448-1-1v-10c0-.552.448-1 1-1s1 .448 1 1v10zm4 0c0 .552-.448 1-1 1s-1-.448-1-1v-10c0-.552.448-1 1-1s1 .448 1 1v10zm5-17v2h-20v-2h5.711c.9 0 1.631-1.099 1.631-2h5.315c0 .901.73 2 1.631 2h5.712zm-3 4v16h-14v-16h-2v18h18v-18h-2z"/>
        </symbol>
    </defs>
</svg>
